<?xml version="1.0" encoding="utf-8"?>
<!-- Generator: Adobe Illustrator 23.1.0, SVG Export Plug-In . SVG Version: 6.00 Build 0)  -->
<svg version="1.1" id="形狀_115_1_" xmlns="http://www.w3.org/2000/svg" xmlns:xlink="http://www.w3.org/1999/xlink" x="0px"
	 y="0px" viewBox="0 0 38 38" style="enable-background:new 0 0 38 38;" xml:space="preserve">
<style type="text/css">
	.st0{fill-rule:evenodd;clip-rule:evenodd;fill:#8C001A;}
</style>
<g id="形狀_115">
	<g>
		<path class="st0" d="M19,0.52C8.81,0.52,0.52,8.81,0.52,19S8.81,37.48,19,37.48c10.19,0,18.48-8.29,18.48-18.48
			S29.19,0.52,19,0.52z M19,34.84c-8.73,0-15.84-7.11-15.84-15.84c0-8.74,7.11-15.84,15.84-15.84c8.73,0,15.84,7.1,15.84,15.84
			C34.84,27.73,27.73,34.84,19,34.84z M24.31,11.09c-0.92,0.7-1.78,1.61-3.02,2.95c-0.21,0.21-0.43,0.43-0.7,0.7
			c-4.04-1.23-4.63-1.4-8.88-2.68c-0.06,0-0.16,0-0.22,0c-0.16,0-0.33,0.05-0.43,0.16l-0.86,0.86c-0.11,0.11-0.16,0.22-0.16,0.38
			c0,0.16,0.11,0.32,0.27,0.43l4.96,2.83c0,0,0.11,0.05,0.11,0.11l1.15,0.81c-0.88,1.54-2.07,3.55-3.04,4.78
			c-0.06,0.11-0.16,0.22-0.22,0.32l-4.04-0.38c0,0,0,0-0.06,0c-0.16,0-0.38,0.05-0.48,0.22l-0.43,0.37
			c-0.06,0.11-0.11,0.22-0.11,0.38c0,0.22,0.11,0.38,0.27,0.43c2.74,1.34,4.63,3.17,5.92,5.96c0.11,0.16,0.27,0.27,0.48,0.27
			c0.11,0,0.27-0.05,0.32-0.16l0.43-0.38c0.11-0.16,0.22-0.32,0.22-0.54l-0.38-4.02c0.11-0.05,0.21-0.16,0.32-0.27
			c1.24-0.91,2.97-2.18,4.69-3.3l0.76,1.25c0.05,0,0.11,0.05,0.11,0.11l3.01,5.16c0.05,0.16,0.22,0.27,0.43,0.27
			c0.11,0,0.27-0.05,0.32-0.16l1.04-1.25c0.11-0.11,0.16-0.27,0.16-0.48c0-0.05,0-0.11-0.05-0.16c-1.24-4.29-1.58-4.44-2.77-8.46
			c0.27-0.27,0.49-0.48,0.7-0.7c1.29-1.24,2.26-2.15,2.96-3.06c0.53-0.69,1.39-1.59,0.23-2.85C26.33,9.87,25.11,10.52,24.31,11.09z"
			/>
	</g>
</g>
</svg>
