<?xml version="1.0" encoding="utf-8"?>
<!-- Generator: Adobe Illustrator 23.1.0, SVG Export Plug-In . SVG Version: 6.00 Build 0)  -->
<svg version="1.1" id="形狀_116_1_" xmlns="http://www.w3.org/2000/svg" xmlns:xlink="http://www.w3.org/1999/xlink" x="0px"
	 y="0px" viewBox="0 0 37 38" style="enable-background:new 0 0 37 38;" xml:space="preserve">
<style type="text/css">
	.st0{fill-rule:evenodd;clip-rule:evenodd;fill:#8C001A;}
</style>
<g id="形狀_116">
	<g>
		<path class="st0" d="M18.87,7.05c-4.45,0-7.99,3.63-7.99,8.03c0,1.43,0.32,2.66,0.9,3.83l7.09,12.08l7.09-12.08
			c0.58-1.1,0.97-2.4,0.97-3.83C26.93,10.69,23.32,7.05,18.87,7.05z M18.87,20.28c-2.83,0-5.09-2.34-5.09-5.19
			c0-2.78,2.26-5.12,5.09-5.12c2.84,0,5.09,2.33,5.09,5.12C23.97,17.94,21.71,20.28,18.87,20.28z M18.87,11.57
			c-1.96,0-3.52,1.61-3.52,3.53c0,1.97,1.56,3.59,3.52,3.59c1.96,0,3.52-1.61,3.52-3.59C22.39,13.18,20.83,11.57,18.87,11.57z
			 M18.5,0.52C8.31,0.52,0.02,8.81,0.02,19c0,10.19,8.29,18.48,18.48,18.48c10.19,0,18.48-8.29,18.48-18.48
			C36.98,8.81,28.69,0.52,18.5,0.52z M18.5,34.84c-8.73,0-15.84-7.1-15.84-15.84c0-8.73,7.11-15.84,15.84-15.84
			c8.73,0,15.84,7.11,15.84,15.84C34.34,27.73,27.23,34.84,18.5,34.84z"/>
	</g>
</g>
</svg>
