<?xml version="1.0" encoding="utf-8"?>
<!-- Generator: Adobe Illustrator 23.1.0, SVG Export Plug-In . SVG Version: 6.00 Build 0)  -->
<svg version="1.1" id="形狀_124_1_" xmlns="http://www.w3.org/2000/svg" xmlns:xlink="http://www.w3.org/1999/xlink" x="0px"
	 y="0px" viewBox="0 0 37 38" style="enable-background:new 0 0 37 38;" xml:space="preserve">
<style type="text/css">
	.st0{fill-rule:evenodd;clip-rule:evenodd;fill:#8C001A;}
</style>
<g id="形狀_124">
	<g>
		<path class="st0" d="M18.5,0.67C8.31,0.67,0.02,8.96,0.02,19.15c0,10.19,8.29,18.48,18.48,18.48c10.19,0,18.48-8.29,18.48-18.48
			C36.98,8.96,28.69,0.67,18.5,0.67z M18.5,34.98c-8.73,0-15.84-7.11-15.84-15.84c0-8.74,7.11-15.84,15.84-15.84
			c8.73,0,15.84,7.1,15.84,15.84C34.34,27.88,27.23,34.98,18.5,34.98z M17.46,26.98c-1.9,0-3.48,0-5.38,0
			c-0.18,0-0.36-0.01-0.54-0.06c-0.73-0.22-1.14-0.79-1.14-1.59c0-3.82,0-6.73,0-10.55c0-0.15,0-0.31,0-0.46
			c0.02-0.73,0.01-1.31,0.71-1.51c0.43-0.12,0.98-0.02,1.42-0.04c0.09,0,0.06,0.07,0.06,0.11c0,0.22,0,0.44,0,0.66
			c0.01,0.44,0.32,0.77,1.04,0.77c0.56,0,0.93-0.33,0.94-0.77c0.01-0.21,0.01-0.42,0-0.64c0-0.11,0.04-0.14,0.14-0.13
			c1.07,0,1.38,0,2.45,0c0.11,0,0.14,0.04,0.13,0.14c-0.01,0.21,0,0.41,0,0.62c0.01,0.46,0.4,0.79,1.05,0.79
			c0.43,0,0.82-0.34,0.83-0.78c0-0.21,0-0.42,0-0.64c0-0.08,0-0.13,0.11-0.13c1.1,0,1.52,0,2.62,0c0.09,0,0.11,0.03,0.11,0.11
			c0,0.21,0,0.43,0,0.64c0.01,0.46,0.37,0.8,1.02,0.8c0.52,0,0.92-0.33,0.93-0.79c0-0.21,0-0.43,0-0.64c0-0.09,0.03-0.12,0.12-0.12
			c0.3,0.01,0.55,0,0.86,0c0.23,0.01,0.45,0.05,0.65,0.16c0.59,0.31,0.87,0.81,0.87,1.47c0,1.43,0,2.01,0,3.44
			c0,0.46,0.47,1.01,1.07,1.01c0.56,0,0.94-0.53,0.94-0.97c0.01-1.52,0.03-2.83-0.01-4.35c-0.04-1.17-0.64-2.03-1.67-2.59
			c-0.57-0.31-1.18-0.36-1.81-0.34c-0.19,0.01-0.86,0.07-0.98-0.03c-0.12-0.1-0.04-0.36-0.03-0.55c0.03-0.48-0.16-0.8-0.62-0.96
			c-0.1,0-0.62,0-0.72,0c-0.45,0.09-0.66,0.35-0.67,0.81c0,0.16,0,0.32,0,0.48c0,0.14-0.06,0.2-0.2,0.19c-0.19,0-0.18,0-0.37,0
			c-0.79,0-1.11,0-1.91,0c-0.21,0-0.23-0.02-0.23-0.23c0-0.15,0-0.3,0-0.44c-0.01-0.47-0.23-0.73-0.67-0.81c-0.1,0-0.55,0-0.65,0
			c-0.14,0.03-0.28,0.04-0.39,0.15c-0.19,0.17-0.28,0.38-0.28,0.63c-0.01,0.17-0.01,0.35,0,0.52c0,0.14-0.06,0.2-0.2,0.19
			c-0.15-0.01-0.31,0-0.46,0c-0.82,0-0.89,0-1.71,0c-0.21,0-0.23-0.02-0.24-0.23c0-0.15,0-0.3,0-0.44
			c-0.01-0.47-0.23-0.73-0.67-0.81c-0.1,0-0.65,0-0.75,0c-0.4,0.07-0.61,0.3-0.66,0.68c-0.01,0.07-0.01,0.13-0.01,0.19
			c0,0.15,0,0.29,0,0.44c0,0.12-0.05,0.17-0.17,0.17c-0.99-0.01-1.94-0.03-2.76,0.6c-0.72,0.54-1.18,1.24-1.26,2.16
			c0,4.27,0,8.54,0,12.81c0.05,0.53,0.22,1.01,0.54,1.43c0.54,0.72,1.24,1.19,2.16,1.27c2.15,0,4.33,0,6.48,0
			c0.03-0.01,0.11-0.01,0.24-0.04C18.63,28.54,18.37,26.98,17.46,26.98z M13.92,15.59c-0.6,0-1.1,0.5-1.1,1.1c0,0.6,0.5,1.1,1.1,1.1
			c0.6,0,1.1-0.5,1.1-1.1C15.02,16.09,14.52,15.59,13.92,15.59z M18.34,15.6c-0.6,0-1.1,0.49-1.1,1.1c0,0.6,0.49,1.1,1.1,1.1
			c0.6,0,1.1-0.49,1.1-1.09C19.43,16.1,18.94,15.6,18.34,15.6z M22.79,15.6c-0.6,0-1.1,0.5-1.1,1.1c0,0.6,0.5,1.1,1.1,1.1
			c0.6,0,1.1-0.5,1.1-1.1C23.89,16.09,23.39,15.6,22.79,15.6z M13.92,19.07c-0.6,0-1.1,0.5-1.1,1.11c0,0.6,0.5,1.1,1.1,1.1
			c0.6,0,1.1-0.5,1.1-1.11C15.02,19.57,14.52,19.07,13.92,19.07z M19.43,20.17c0-0.6-0.5-1.1-1.1-1.1c-0.6,0-1.1,0.5-1.1,1.1
			c0,0.6,0.5,1.1,1.1,1.1C18.93,21.27,19.43,20.78,19.43,20.17z M13.91,22.6c-0.6,0.01-1.09,0.51-1.09,1.11
			c0,0.6,0.51,1.1,1.11,1.09c0.6,0,1.1-0.51,1.09-1.11C15.01,23.09,14.51,22.59,13.91,22.6z M24.83,19.31
			c-1.93-0.3-3.54,0.36-4.76,1.88c-0.93,1.15-1.24,2.5-1.02,3.97c0.38,2.55,2.97,4.57,5.52,4.18c1.46-0.23,2.77-0.87,3.62-2.11
			c1.07-1.57,1.25-3.26,0.47-4.99C27.92,20.59,26.62,19.58,24.83,19.31z M24.04,27.43c-1.72-0.01-3.12-1.42-3.12-3.14
			c0.01-1.72,1.41-3.11,3.12-3.11c1.72,0,3.13,1.41,3.13,3.13C27.17,26.03,25.76,27.44,24.04,27.43z M25.21,23.68
			c-0.1-0.01-0.19-0.01-0.29,0c-0.09,0.01-0.11-0.02-0.11-0.11c0-0.24,0.01-0.47,0-0.71c-0.01-0.43-0.35-0.76-0.76-0.76
			c-0.42,0-0.76,0.32-0.77,0.75c-0.01,0.54-0.01,1.08,0,1.62c0.01,0.42,0.33,0.73,0.75,0.75c0.19,0.01,0.37,0,0.56,0
			c0.21,0,0.41,0.01,0.62,0c0.42-0.02,0.73-0.37,0.73-0.78C25.93,24.04,25.62,23.7,25.21,23.68z"/>
	</g>
</g>
</svg>
