<?xml version="1.0" encoding="utf-8"?>
<!-- Generator: Adobe Illustrator 23.1.0, SVG Export Plug-In . SVG Version: 6.00 Build 0)  -->
<svg version="1.1" id="形狀_118_1_" xmlns="http://www.w3.org/2000/svg" xmlns:xlink="http://www.w3.org/1999/xlink" x="0px"
	 y="0px" viewBox="0 0 38 38" style="enable-background:new 0 0 38 38;" xml:space="preserve">
<style type="text/css">
	.st0{fill-rule:evenodd;clip-rule:evenodd;fill:#8C001A;}
</style>
<g id="形狀_118">
	<g>
		<path class="st0" d="M19,0.52C8.81,0.52,0.52,8.81,0.52,19c0,10.19,8.29,18.48,18.48,18.48c10.19,0,18.48-8.29,18.48-18.48
			C37.48,8.81,29.19,0.52,19,0.52z M19,34.84c-8.73,0-15.84-7.11-15.84-15.84c0-8.73,7.11-15.84,15.84-15.84
			c8.73,0,15.84,7.11,15.84,15.84C34.84,27.73,27.73,34.84,19,34.84z M27.56,13.03H25.1c0,0-1.03-2.91-1.63-2.91h-7.88
			c-0.6,0-1.63,2.91-1.63,2.91h-3.73c-0.6,0-1.08,0.48-1.08,1.08v11.76c0,0.15,0.03,0.29,0.08,0.42l0.31,0.41
			c0.19,0.16,0.43,0.25,0.69,0.25h17.33c0.26,0,0.5-0.1,0.69-0.25l0.23-0.25c0.11-0.17,0.17-0.37,0.17-0.58V14.11
			C28.65,13.52,28.16,13.03,27.56,13.03z M12.48,18.3c-0.46,0-0.84-0.38-0.84-0.84c0-0.47,0.38-0.84,0.84-0.84
			c0.47,0,0.84,0.38,0.84,0.84C13.32,17.93,12.95,18.3,12.48,18.3z M19.61,23.92c-2.38,0-4.31-1.93-4.31-4.31
			c0-2.38,1.93-4.31,4.31-4.31c2.38,0,4.31,1.93,4.31,4.31C23.92,21.99,21.99,23.92,19.61,23.92z M23.37,15.39
			c-1-0.89-2.31-1.43-3.76-1.43c-1.44,0-2.76,0.54-3.76,1.43h-5.63l0-1.27h3.73c0.46,0,0.88-0.29,1.03-0.73
			c0.3-0.85,0.72-1.78,0.98-2.18h7.13c0.26,0.4,0.67,1.32,0.98,2.18c0.15,0.43,0.57,0.73,1.03,0.73l2.45-0.01l0,1.28H23.37z
			 M21.51,18.94c-0.7,0-1.27-0.57-1.27-1.27c0-0.47,0.26-0.88,0.64-1.09c-0.39-0.17-0.82-0.26-1.27-0.26
			c-1.82,0-3.29,1.47-3.29,3.29c0,1.82,1.47,3.29,3.29,3.29c1.82,0,3.29-1.47,3.29-3.29c0-0.47-0.1-0.93-0.29-1.34
			C22.41,18.67,21.99,18.94,21.51,18.94z M12.61,11.6h-1.65v1.1h1.65V11.6z M27.21,11.6h-1.05v1.1h1.05V11.6z"/>
	</g>
</g>
</svg>
