<?xml version="1.0" encoding="utf-8"?>
<!-- Generator: Adobe Illustrator 23.1.0, SVG Export Plug-In . SVG Version: 6.00 Build 0)  -->
<svg version="1.1" id="形狀_126_1_" xmlns="http://www.w3.org/2000/svg" xmlns:xlink="http://www.w3.org/1999/xlink" x="0px"
	 y="0px" viewBox="0 0 37 38" style="enable-background:new 0 0 37 38;" xml:space="preserve">
<style type="text/css">
	.st0{fill-rule:evenodd;clip-rule:evenodd;fill:#8C001A;}
</style>
<g id="形狀_126">
	<g>
		<path class="st0" d="M18.5,0.52C8.31,0.52,0.02,8.81,0.02,19c0,10.19,8.29,18.48,18.48,18.48c10.19,0,18.48-8.29,18.48-18.48
			C36.98,8.81,28.69,0.52,18.5,0.52z M18.5,34.84C9.77,34.84,2.66,27.73,2.66,19c0-8.74,7.11-15.84,15.84-15.84
			c8.73,0,15.84,7.1,15.84,15.84C34.34,27.73,27.23,34.84,18.5,34.84z M25.24,22.37c-0.4-0.4-0.79-0.41-1.21-0.02
			c-0.09,0.09-0.14,0.08-0.23,0c-0.21-0.22-0.42-0.44-0.64-0.64c-0.14-0.12-0.15-0.2-0.04-0.36c0.98-1.42,1.48-3,1.5-4.62
			c0-0.61-0.05-1.12-0.14-1.62c-0.85-4.94-6.03-8.08-10.81-6.54c-4.71,1.53-7.1,6.61-5.26,11.2c1.48,3.69,5.54,5.88,9.42,5.07
			c1.15-0.24,2.21-0.68,3.17-1.37c0.11-0.08,0.18-0.08,0.27,0.03c0.2,0.22,0.41,0.43,0.63,0.62c0.14,0.13,0.16,0.2,0.01,0.35
			c-0.31,0.3-0.31,0.75-0.01,1.05c1.16,1.17,2.32,2.35,3.51,3.49c0.58,0.56,1.31,0.71,2.09,0.5c1.75-0.47,2.29-2.58,0.99-3.89
			C27.41,24.53,26.32,23.45,25.24,22.37z M19.27,19.57c0,0.52-0.31,0.83-0.83,0.84c-1.49,0-2.98,0-4.47,0
			c-0.5,0-0.82-0.32-0.82-0.82c0-1.13,0-2.26,0-3.39c0-1.11,0-2.23,0-3.34c0-0.55,0.3-0.85,0.86-0.85c0.96,0,1.93,0,2.89,0
			c0.26,0,0.48,0.08,0.66,0.27c0.48,0.48,0.95,0.96,1.44,1.43c0.19,0.19,0.27,0.4,0.27,0.66C19.26,16.1,19.27,17.83,19.27,19.57z
			 M14.37,15.05c0.61,0,1.23,0,1.84,0c0.61,0,1.22,0,1.84,0c0.14,0,0.27-0.02,0.36-0.14c0.1-0.12,0.12-0.25,0.05-0.4
			c-0.08-0.17-0.23-0.23-0.41-0.23c-1.23,0-2.46,0-3.7,0c-0.28,0-0.45,0.15-0.44,0.39C13.92,14.91,14.09,15.05,14.37,15.05z
			 M18.04,15.82c-0.61,0-1.22,0-1.84,0c-0.6,0-1.21,0-1.81,0c-0.3,0-0.48,0.14-0.48,0.38c0,0.24,0.17,0.39,0.47,0.39
			c1.22,0,2.43,0,3.65,0c0.3,0,0.47-0.15,0.47-0.39C18.49,15.96,18.33,15.82,18.04,15.82z M18.05,17.35c-1.22,0-2.45,0-3.67,0
			c-0.29,0-0.45,0.14-0.46,0.37c-0.01,0.24,0.17,0.39,0.46,0.39c0.61,0,1.23,0,1.84,0c0.61,0,1.22,0,1.84,0
			c0.28,0,0.45-0.15,0.45-0.38C18.5,17.49,18.33,17.35,18.05,17.35z"/>
	</g>
</g>
</svg>
